<?xml version="1.0" standalone="no"?>
<!DOCTYPE svg PUBLIC "-//W3C//DTD SVG 20010904//EN"
 "http://www.w3.org/TR/2001/REC-SVG-20010904/DTD/svg10.dtd">
<svg version="1.0" xmlns="http://www.w3.org/2000/svg"
 width="100.000000pt" height="100.000000pt" viewBox="0 0 100.000000 100.000000"
 preserveAspectRatio="xMidYMid meet">
<metadata>
Created by potrace 1.11, written by Peter Selinger 2001-2013
</metadata>
<g transform="translate(0.000000,100.000000) scale(0.100000,-0.100000)"
fill="#000000" stroke="none">
<path d="M204 748 c-15 -29 -67 -131 -116 -226 l-90 -173 33 -75 33 -74 96 0
97 0 33 61 32 61 40 -61 41 -61 96 0 96 0 30 60 29 59 39 -59 40 -60 92 0 93
0 41 71 c23 39 41 72 41 73 0 2 -56 104 -124 227 l-125 224 -93 3 -94 3 -34
-60 c-18 -33 -37 -58 -41 -55 -4 2 -22 29 -39 59 l-31 55 -95 0 -94 0 -26 -52z
m185 23 c2 0 -1 -7 -7 -13 -5 -7 -53 -100 -106 -205 -89 -178 -99 -193 -124
-194 -40 -1 -106 2 -110 6 -5 4 199 398 209 405 6 4 124 5 138 1z m321 -4 c0
-18 -222 -407 -233 -408 -24 -2 -121 2 -125 5 -4 5 204 373 224 396 14 17 134
23 134 7z m95 -123 c21 -38 66 -120 101 -182 l63 -113 -26 -54 c-15 -30 -30
-52 -33 -50 -4 3 -42 63 -85 135 -43 71 -82 130 -86 130 -7 0 -45 -65 -120
-204 -20 -39 -46 -73 -56 -76 -10 -3 -46 -6 -80 -6 l-62 1 -36 50 -35 50 76 5
77 5 62 110 c34 61 88 156 119 213 56 100 58 103 71 79 6 -13 29 -55 50 -93z
m-361 60 c14 -26 26 -51 26 -56 0 -6 -52 -103 -115 -217 l-115 -207 -73 2
c-39 1 -76 2 -80 3 -11 1 -50 91 -44 98 3 3 39 6 79 6 l73 2 105 207 c58 114
108 208 112 208 3 0 18 -21 32 -46z m369 -354 c37 -61 67 -114 67 -118 0 -9
-127 -9 -135 0 -4 3 -21 30 -40 59 l-33 53 29 58 c16 32 33 58 37 58 4 0 38
-50 75 -110z"/>
</g>
</svg>
