<?xml version="1.0" encoding="UTF-8"?>
<svg width="583px" height="350px" viewBox="0 0 583 350" version="1.1" xmlns="http://www.w3.org/2000/svg" xmlns:xlink="http://www.w3.org/1999/xlink">
    <!-- Generator: Sketch 53 (72520) - https://sketchapp.com -->
    <title>Shape</title>
    <desc>Created with Sketch.</desc>
    <g id="Page-1" stroke="none" stroke-width="1" fill="none" fill-rule="evenodd">
        <g id="Artboard" fill="#000000" fill-rule="nonzero">
            <g id="LOGO2">
                <path d="M537.3,349 C500.6,349 463.9,349 427.2,349 C413.3,327.3 399.4,305.5 385.5,283.8 C384.6,282.4 383.4,281.1 382,279.4 C369.9,301.9 358.1,323.8 346.4,345.8 C345.9,346.8 345.9,348 345.6,349.1 C308.9,349.1 272.2,349.1 235.5,349.1 C229.4,339.8 223.4,330.4 217.2,321.1 C207.9,307.1 198.4,293.3 188.7,278.9 C187.7,280.3 187,281 186.6,281.7 C174.7,302.8 162.7,323.9 150.9,345.1 C150.3,346.3 150.1,347.7 149.8,349 C113.1,349 76.4,349 39.7,349 C27.1,322.9 14.6,296.7 1.9,270.6 C-0.1,266.4 -0.4,263.1 2,258.7 C14.6,235 26.8,211 39.1,187.1 C71.2,124.8 103.4,62.4 135.5,0.1 C172.2,0.1 208.9,0.1 245.6,0.1 C246.2,1.8 246.5,3.7 247.4,5.3 C259.3,26.7 271.4,48 283.4,69.4 C284.2,70.7 285.2,71.9 286.6,73.9 C301.3,48.9 315.6,24.5 330,0.1 C365.7,0.1 401.5,0.1 437.2,0.1 C438.1,2.4 438.8,4.9 440,7.1 C486.3,90.6 532.6,174 579,257.4 C580.1,259.4 581.6,261.2 583,263.1 C583,264.1 583,265 583,266 C582.3,266.9 581.3,267.6 580.8,268.6 C566.6,294.1 552.5,319.5 538.4,345 C537.8,346.3 537.6,347.7 537.3,349 Z M432.2,22.9 C430.2,26.3 428.8,28.7 427.4,31.2 C383.7,109 340,186.8 296.6,264.7 C293.5,270.3 290.1,272 283.9,271.9 C259.1,271.5 234.4,271.7 209.6,271.8 C207.4,271.8 205.2,272 201.9,272.2 C215.9,292.9 229.1,312.6 242.7,332.1 C243.8,333.7 247.1,334.5 249.4,334.5 C276.3,334.7 303.2,334.5 330.1,334.7 C334.6,334.7 336.8,333.2 338.8,329.3 C355.6,298.1 372.5,267 389.6,235.9 C402.9,211.8 416.7,187.9 430.7,163.1 C464.3,218.2 497.4,272.6 530.9,327.7 C532.6,325 533.8,323 535,321 C544.1,304.6 553.1,288 562.5,271.8 C565.5,266.7 565.6,262.8 562.6,257.6 C541.1,219.5 520,181.2 498.7,142.9 C476.8,103.3 454.7,63.6 432.2,22.9 Z M240.4,22.3 C238.9,24.9 237.9,26.5 237.1,28.2 C196.6,107.3 156.1,186.4 115.8,265.7 C113.4,270.4 110.9,272.1 105.6,272 C86.8,271.6 68,271.9 49.2,271.9 C39.5,271.9 29.8,271.9 19.4,271.9 C20.2,274.2 20.6,275.8 21.3,277.2 C29.7,294.8 38.4,312.2 46.6,329.9 C48.4,333.8 50.6,334.9 54.6,334.9 C81.3,334.7 107.9,334.7 134.6,334.9 C139.1,334.9 141.3,333.2 143.4,329.5 C153.4,311.4 163.8,293.5 173.9,275.4 C207.6,215 241.3,154.6 274.8,94 C276.1,91.6 276.7,87.4 275.5,85.1 C264.2,64.4 252.5,44 240.4,22.3 Z M227.7,14.5 C201.5,14.5 176.6,14.7 151.6,14.4 C146.4,14.3 143.7,15.9 141.3,20.6 C107.3,86.8 73.1,152.8 38.9,218.9 C32.4,231.5 26,244.1 19.2,257.5 C45.8,257.5 71.3,257.3 96.7,257.6 C102,257.7 104.5,255.9 106.9,251.3 C135.3,195.4 164,139.5 192.5,83.7 C204.1,61.1 215.6,38.4 227.7,14.5 Z M420.2,14.5 C394.6,14.5 370.3,14.7 346,14.4 C340.5,14.3 337.5,16 334.8,20.8 C291.1,98 247.1,175 203.3,252.1 C202.4,253.6 201.9,255.3 201,257.5 C226.9,257.5 251.9,257.3 276.9,257.6 C282.1,257.7 284.8,256 287.3,251.4 C319.1,194.3 351.2,137.3 383.2,80.2 C395.4,58.8 407.4,37.3 420.2,14.5 Z M431.3,191.7 C417.7,215.7 404.9,238.2 392.5,260.9 C391.4,262.9 392,266.8 393.3,268.9 C406.3,289.4 419.7,309.6 432.7,330.1 C434.9,333.5 437.2,334.8 441.3,334.8 C465.1,334.6 488.9,334.7 512.7,334.7 C514.2,334.7 515.7,334.4 518,334.1 C489,286.5 460.5,239.7 431.3,191.7 Z" id="Shape"></path>
            </g>
        </g>
    </g>
</svg>