<?xml version="1.0" encoding="UTF-8"?>
<svg width="36px" height="36px" viewBox="0 0 36 36" version="1.1" xmlns="http://www.w3.org/2000/svg" xmlns:xlink="http://www.w3.org/1999/xlink">
    <!-- Generator: Sketch 53.2 (72643) - https://sketchapp.com -->
    <title>Artboard</title>
    <desc>Created with Sketch.</desc>
    <g id="Artboard" stroke="none" stroke-width="1" fill="none" fill-rule="evenodd">
        <path d="M31.7037845,21.1018165 C31.468661,21.0820588 31.2094203,21.0732698 30.9259924,21.0732698 C29.0803707,21.0732698 26.2063647,21.4665956 22.2689589,22.1609273 C22.2359825,22.0675529 22.1909828,21.9785378 22.1371237,21.8917727 C25.2044177,19.4759201 29.2495416,15.4692569 29.2495416,11.1247442 C29.2495416,7.74210058 26.5073707,5 23.1247271,5 C21.4109406,5 19.8607703,5.70424573 18.7500505,6.83852011 C17.6382057,5.70417542 16.0885979,5 14.3748114,5 C10.9921678,5 8.25006722,7.74217089 8.25006722,11.1247442 C8.25006722,14.4019196 10.5515923,17.4867916 12.9993666,19.8417539 C11.1964947,19.7439498 9.25693612,19.6384816 7.65571926,19.5505916 C7.38213497,19.5351932 7.11741002,19.5286542 6.86252875,19.5286542 C1.18103191,19.5286542 0,23.0750546 0,23.0750546 L0,26.7475948 C0.0021796743,28.8536524 6.49339036,29.8863961 6.51532772,29.8897008 C11.6716637,30.9081009 18.0090315,31.2486926 18.0090315,31.2486926 C18.0090315,31.2486926 35.375481,24.426312 35.8325095,24.0285566 C36.2872177,23.6296762 36.0873205,21.4533769 31.7037845,21.1018165 Z M14.5132558,19.2061327 C12.3401909,17.2143323 9.75017532,14.1953427 9.75017532,11.1246738 C9.75017532,8.57424398 11.8248737,6.4995456 14.3748114,6.4995456 C15.6277725,6.4995456 16.8010701,6.99285512 17.6782835,7.88870125 L18.7500505,8.98184307 L19.8211846,7.88813876 C20.6979059,6.9927848 21.8712035,6.49947529 23.1246568,6.49947529 C25.6745945,6.49947529 27.7498554,8.57417366 27.7498554,11.1246035 C27.7498554,14.1814913 25.18016,17.1873324 23.024673,19.1703439 C22.3128336,19.8250899 21.5964942,20.4150785 20.9373185,20.9237864 C19.9002154,20.3942661 18.6642698,20.1503535 18.6642698,20.1503535 C18.6642698,20.1503535 17.2876297,20.0756821 15.3832271,19.9723937 C15.0960726,19.7284811 14.8049103,19.4735998 14.5132558,19.2061327 Z M17.7684236,29.732483 C16.4270099,29.6478976 11.1459403,29.2754545 6.80649002,28.418491 L6.77850582,28.4118816 L6.7510138,28.4075223 C6.73835762,28.4063973 5.48265429,28.2042501 4.13681088,27.8098697 C2.23184586,27.2528574 1.6462869,26.7617979 1.50017841,26.6079551 L1.50017841,23.3934277 C1.61281836,23.1891008 1.85778562,22.8101187 2.29280643,22.4267069 C2.73612405,22.0356312 3.27935514,21.7214065 3.90836695,21.4907126 C4.74880717,21.1842223 5.74245741,21.0281998 6.86252875,21.0281998 C7.09322266,21.0281998 7.3327759,21.0348091 7.573876,21.0479575 C11.5288599,21.2643781 17.5508781,21.5917511 18.4650053,21.6423054 C18.6528792,21.6840708 19.1082202,21.7961483 19.6037094,21.9784675 C20.0915346,22.158607 20.4111732,22.3322075 20.6078361,22.4651677 C19.0455721,22.835431 14.34296,23.8834325 11.0074958,23.9207682 L11.0074958,23.9207682 C10.5971546,23.9251276 10.2659847,24.2591099 10.2659847,24.6700137 C10.2659847,25.0842221 10.6015842,25.4203841 11.0157927,25.4203841 C11.0185348,25.4203841 11.021277,25.4192591 11.0240192,25.4192591 L11.0240192,25.4203841 C12.7999615,25.3995014 15.1048616,25.1193781 17.8750167,24.5865532 C19.4850929,24.2756332 20.7638586,23.9724476 21.2714415,23.8482765 L21.2747461,23.8592451 L22.5282698,23.6373402 C26.6480652,22.9122821 29.3177443,22.5739404 30.9260627,22.5739404 C31.1699753,22.5739404 31.3907552,22.5805498 31.5830587,22.5958778 C32.9168084,22.7035256 33.6550852,22.9869536 34.039622,23.2066788 C31.176444,24.4261714 23.1433598,27.6186911 17.7684236,29.732483 Z" id="hand_heart" fill="#554FF9" fill-rule="nonzero"></path>
    </g>
</svg>