<?xml version="1.0" encoding="UTF-8"?>
<svg width="36px" height="36px" viewBox="0 0 36 36" version="1.1" xmlns="http://www.w3.org/2000/svg" xmlns:xlink="http://www.w3.org/1999/xlink">
    <!-- Generator: Sketch 53.2 (72643) - https://sketchapp.com -->
    <title>Artboard</title>
    <desc>Created with Sketch.</desc>
    <g id="Artboard" stroke="none" stroke-width="1" fill="none" fill-rule="evenodd">
        <g id="hot-heart" transform="translate(6.000000, 0.000000)" fill="#554FF9" fill-rule="nonzero">
            <path d="M21.9317344,15.9977109 C21.9174609,15.5697891 21.8647266,15.1396875 21.7724062,14.7068437 C21.4208437,13.0677187 20.5001719,11.4466641 19.0345781,9.88882031 C17.4767344,8.23042969 16.5978281,6.29191406 16.4242266,4.12755469 C16.2923906,2.49222656 16.6329844,1.32989062 16.6351641,1.32053906 L17.0395312,0 L15.7123828,0.379546875 C9.74566406,2.08413281 6.84527344,5.15039062 6.45475781,10.2398203 C5.88459375,9.96735938 5.34016406,9.74046094 5.24242969,9.69982031 L4.56124219,9.41800781 L4.26733594,10.0942031 C3.44608594,11.9844141 3.18023437,13.6548984 3.24175781,15.0973594 C1.30267969,16.3426641 0.0177890625,18.5179219 0.0177890625,20.9936953 C0.017859375,28.9972969 12.0231562,36 12.0231562,36 C12.0231562,36 24.0290156,28.9972969 24.0290156,20.9937656 C24.0290156,19.0371094 23.2248516,17.2683281 21.9317344,15.9977109 Z M5.36491406,11.3890078 C5.86096875,11.6131641 6.44596875,11.8949063 6.73439062,12.0932578 L7.90994531,12.9007266 L7.90994531,11.4752813 C7.90994531,8.90613281 8.521875,6.92198438 9.78039844,5.40921094 C10.9053984,4.0573125 12.6061172,2.99826563 14.9565937,2.18854688 C14.89725,2.72685938 14.8653984,3.40530469 14.9225625,4.17649219 C15.0510937,5.92333594 15.6806016,8.5100625 17.9426953,10.9165781 C19.1401875,12.1921172 19.9114453,13.4895938 20.24325,14.7727969 C19.2797578,14.2734375 18.1854844,13.9911328 17.0253281,13.9911328 C16.7012578,13.9911328 16.3804219,14.0136328 16.0684453,14.0565234 C14.5106016,12.2965313 13.7678906,10.269 13.7569219,10.2382031 L13.3976953,9.22584375 L12.5709609,9.91195313 C10.8840234,11.3115938 9.76282031,12.7596094 9.18386719,14.3322891 C8.50267969,14.1109453 7.776,13.9911328 7.02119531,13.9911328 C6.22582031,13.9911328 5.46166406,14.1240938 4.74925781,14.3679375 C4.78757812,13.4088047 4.99190625,12.4117734 5.36491406,11.3890078 Z M14.4577266,14.4772031 C13.534875,14.8414219 12.7065234,15.3961875 12.0231562,16.0932656 C11.588625,15.6499453 11.095875,15.2643516 10.557,14.9485078 C10.9425938,13.8454453 11.6704688,12.7880156 12.7696641,11.7405 C13.1124375,12.4579688 13.6667109,13.4697656 14.4577266,14.4772031 Z M17.0505,30.3562969 C15.0773906,32.1723281 13.0762266,33.5500312 12.0231562,34.2311484 C10.9700859,33.5499609 8.96948437,32.1723281 6.9958125,30.3562969 C4.49697656,28.0590469 1.51860937,24.5687344 1.51860937,20.9937656 C1.51860937,19.5248672 2.09102344,18.1422422 3.1303125,17.1029531 C4.16960156,16.0636641 5.55117187,15.4918125 7.021125,15.4918125 C8.51139844,15.4918125 9.90724219,16.0785 10.9514531,17.1435937 L12.0231562,18.2377969 L13.0948594,17.1435937 C14.1391406,16.0785 15.5343516,15.4918125 17.0251875,15.4918125 C18.4951406,15.4918125 19.8761484,16.0636641 20.9154375,17.1029531 C21.9547266,18.1422422 22.5282656,19.5248672 22.5282656,20.9937656 C22.5282656,24.5687344 19.5487734,28.0590469 17.0505,30.3562969 Z" id="hot_heart"></path>
        </g>
    </g>
</svg>