<?xml version="1.0" encoding="UTF-8"?>
<svg width="36px" height="36px" viewBox="0 0 36 36" version="1.1" xmlns="http://www.w3.org/2000/svg" xmlns:xlink="http://www.w3.org/1999/xlink">
    <!-- Generator: Sketch 53.2 (72643) - https://sketchapp.com -->
    <title>Artboard</title>
    <desc>Created with Sketch.</desc>
    <g id="Artboard" stroke="none" stroke-width="1" fill="none" fill-rule="evenodd">
        <g id="t-shirt" transform="translate(0.000000, 3.000000)" fill="#554FF9" fill-rule="nonzero">
            <path d="M25.500375,0 L21.75075,0 C21.75075,2.06817187 20.0676094,3.7501875 18,3.7501875 C15.9323906,3.7501875 14.250375,2.06817187 14.250375,0 L10.5001875,0 L0,6.0001875 L3.000375,14.250375 L7.500375,12.7501875 L7.500375,30.0009375 L28.50075,30.0009375 L28.50075,12.7501875 L33.00075,14.250375 L36,6.0001875 L25.500375,0 Z M32.0888672,12.3656484 L28.9742344,11.3274141 L27,10.6688672 L27,12.7502578 L27,28.5002578 L9,28.5002578 L9,12.7502578 L9,10.6688672 L7.02576563,11.3274844 L3.91113281,12.3657187 L1.84183594,6.67532812 L10.8984375,1.5001875 L12.9677344,1.5001875 C13.6132031,3.66890625 15.6220313,5.250375 18,5.250375 C20.3785312,5.250375 22.3868672,3.66890625 23.0317031,1.5001875 L25.1015625,1.5001875 L34.1586562,6.67532813 L32.0888672,12.3656484 Z"></path>
            <path d="M18.0001875,20 C18.0001875,20 23,16.8183376 23,13.1820715 C23,11.424254 21.6941257,10 20.0828177,10 C19.2669217,10 18.5293528,10.3659329 18.0001875,10.95523 C17.4706472,10.365984 16.7327502,10 15.9168542,10 C14.3059212,10 13,11.424254 13,13.1820715 C13,16.8183887 18.0001875,20 18.0001875,20 Z M15.9167526,11 C16.4356426,11 16.9219556,11.2341613 17.2856004,11.6589177 L18.0000469,12.4948933 L18.7141183,11.6589177 C19.0777632,11.234215 19.5640761,11 20.0825912,11 C21.1401519,11 22,11.9845625 22,13.1966251 C22,14.7427127 20.8303647,16.30223 19.8496766,17.3380405 C19.1568388,18.0699623 18.4548139,18.6499668 18,19 C17.5448111,18.6499668 16.842458,18.070016 16.1503234,17.3380405 C15.1692603,16.3022837 14,14.7427664 14,13.1966251 C14.0000937,11.9845625 14.8599419,11 15.9167526,11 Z" id="Shape"></path>
        </g>
    </g>
</svg>