<?xml version="1.0" encoding="UTF-8"?>
<svg width="384px" height="103px" viewBox="0 0 384 103" version="1.1" xmlns="http://www.w3.org/2000/svg" xmlns:xlink="http://www.w3.org/1999/xlink">
    <!-- Generator: Sketch 48.2 (47327) - http://www.bohemiancoding.com/sketch -->
    <title>Group</title>
    <desc>Created with Sketch.</desc>
    <defs></defs>
    <g id="Artboard" stroke="none" stroke-width="1" fill="none" fill-rule="evenodd" transform="translate(-321.000000, -343.000000)">
        <g id="Group" transform="translate(321.000000, 343.000000)" fill-rule="nonzero">
            <path d="M201.446985,47.6091644 L201.446985,50.574124 L195.991684,50.574124 L195.991684,12.9730458 L201.713098,12.9730458 L201.713098,24.967655 C202.245322,24.5633423 202.777547,24.1590296 203.176715,23.754717 C203.575884,23.3504043 204.108108,23.0808625 204.507277,22.8113208 C204.906445,22.541779 205.438669,22.4070081 205.970894,22.2722372 C206.503119,22.1374663 207.035343,22.0026954 207.700624,22.0026954 C209.56341,22.0026954 211.027027,22.6765499 211.95842,23.8894879 C212.889813,25.1024259 213.555094,27.1239892 213.555094,29.6846361 L213.555094,43.0269542 C213.555094,45.5876011 213.022869,47.6091644 211.95842,48.8221024 C210.893971,50.0350404 209.56341,50.7088949 207.700624,50.7088949 C206.237006,50.7088949 205.172557,50.4393531 204.241164,49.9002695 C203.442827,49.6307278 202.511435,48.8221024 201.446985,47.6091644 Z M201.713098,28.2021563 L201.713098,44.6442049 C202.245322,45.0485175 202.777547,45.4528302 203.309771,45.722372 C203.841996,45.9919137 204.37422,46.1266846 204.906445,46.1266846 C205.305613,46.1266846 205.704782,46.1266846 205.970894,45.9919137 C206.370062,45.8571429 206.636175,45.5876011 206.902287,45.3180593 C207.168399,44.9137466 207.301455,44.509434 207.434511,43.9703504 C207.567568,43.4312668 207.700624,42.6226415 207.700624,41.6792453 L207.700624,31.3018868 C207.700624,30.3584906 207.567568,29.5498652 207.434511,29.0107817 C207.301455,28.4716981 207.035343,27.9326146 206.902287,27.6630728 C206.636175,27.2587601 206.370062,27.1239892 205.970894,26.9892183 C205.571726,26.8544474 205.305613,26.8544474 204.906445,26.8544474 C204.37422,26.8544474 203.841996,26.9892183 203.309771,27.2587601 C202.910603,27.5283019 202.378378,27.7978437 201.713098,28.2021563 Z M226.06237,40.4663073 L229.654886,22.6765499 L235.509356,22.6765499 L228.324324,52.7304582 C228.058212,53.9433962 227.659044,55.0215633 227.126819,55.9649596 C226.594595,56.9083558 226.06237,57.4474394 225.530146,57.9865229 C224.864865,58.5256065 224.199584,58.9299191 223.268191,59.06469 C222.469854,59.3342318 221.538462,59.3342318 220.474012,59.3342318 L218.079002,59.3342318 L218.079002,54.6172507 L219.409563,54.6172507 C220.873181,54.6172507 221.804574,54.212938 222.336798,53.5390836 C222.869023,52.8652291 223.135135,51.6522911 223.135135,50.1698113 C223.135135,49.6307278 223.135135,48.9568733 223.002079,48.4177898 C222.869023,47.8787062 222.735967,47.2048518 222.602911,46.5309973 L216.615385,22.8113208 L222.469854,22.8113208 L226.06237,40.4663073 Z M202.644491,86.9622642 L202.644491,102.326146 L196.257796,102.326146 L196.257796,64.8598383 L205.438669,64.8598383 C209.430353,64.8598383 212.224532,65.6684636 214.087318,67.4204852 C215.950104,69.1725067 216.881497,72.0026954 216.881497,75.9110512 C216.881497,79.9541779 215.950104,82.7843666 214.087318,84.4016173 C212.224532,86.0188679 209.297297,86.9622642 205.438669,86.9622642 L202.644491,86.9622642 Z M205.172557,70.2506739 L202.777547,70.2506739 L202.777547,81.7061995 L205.172557,81.7061995 C206.237006,81.7061995 207.035343,81.5714286 207.700624,81.4366577 C208.365904,81.3018868 209.031185,80.8975741 209.430353,80.4932615 C209.829522,80.0889488 210.095634,79.4150943 210.361746,78.7412399 C210.494802,77.9326146 210.627859,77.1239892 210.627859,75.9110512 C210.627859,74.8328841 210.494802,73.8894879 210.361746,73.0808625 C210.22869,72.2722372 209.829522,71.7331536 209.430353,71.328841 C209.031185,70.9245283 208.49896,70.5202156 207.700624,70.3854447 C207.035343,70.2506739 206.10395,70.2506739 205.172557,70.2506739 Z M226.06237,83.1886792 L226.06237,102.460916 L220.340956,102.460916 L220.340956,74.4285714 L225.796258,74.4285714 L225.796258,77.6630728 L225.929314,77.6630728 C226.594595,76.4501348 227.525988,75.5067385 228.723493,74.8328841 C229.920998,74.1590296 231.118503,73.8894879 232.449064,73.8894879 L233.64657,73.8894879 L233.64657,79.9541779 C233.114345,79.819407 232.582121,79.6846361 232.049896,79.5498652 C231.517672,79.4150943 230.852391,79.4150943 229.920998,79.4150943 C228.989605,79.4150943 228.058212,79.6846361 227.259875,80.3584906 C226.461538,81.032345 226.06237,81.9757412 226.06237,83.1886792 Z M248.814969,96.3962264 L248.814969,74.4285714 L254.536383,74.4285714 L254.536383,102.326146 L249.081081,102.326146 L249.081081,99.4959569 C248.4158,100.03504 247.883576,100.439353 247.484407,100.843666 C246.952183,101.247978 246.553015,101.652291 246.02079,101.921833 C245.488565,102.191375 244.956341,102.460916 244.29106,102.595687 C243.62578,102.730458 242.960499,102.865229 242.162162,102.865229 C240.565489,102.865229 239.50104,102.326146 238.569647,101.382749 C237.638254,100.439353 237.372141,98.9568733 237.372141,97.0700809 L237.372141,74.4285714 L243.093555,74.4285714 L243.093555,96.1266846 C243.093555,96.8005391 243.226611,97.3396226 243.62578,97.6091644 C244.024948,97.8787062 244.557173,98.148248 245.089397,98.148248 C245.621622,98.148248 246.286902,98.0134771 246.819127,97.6091644 C247.484407,97.2048518 248.149688,96.8005391 248.814969,96.3962264 Z M277.155925,64.8598383 L277.155925,102.326146 L271.700624,102.326146 L271.700624,99.361186 C270.769231,100.574124 269.837838,101.382749 269.039501,101.921833 C268.241164,102.460916 267.043659,102.730458 265.580042,102.730458 C263.717256,102.730458 262.253638,102.056604 261.322245,100.843666 C260.257796,99.4959569 259.725572,97.6091644 259.725572,95.0485175 L259.725572,81.7061995 C259.725572,79.1455526 260.257796,77.1239892 261.322245,75.9110512 C262.386694,74.5633423 263.717256,74.0242588 265.580042,74.0242588 C266.245322,74.0242588 266.777547,74.1590296 267.309771,74.2938005 C267.841996,74.4285714 268.241164,74.5633423 268.640333,74.8328841 C269.039501,75.1024259 269.571726,75.3719677 269.970894,75.7762803 C270.370062,76.180593 270.902287,76.5849057 271.567568,76.9892183 L271.567568,64.9946092 L277.155925,64.9946092 L277.155925,64.8598383 Z M271.434511,96.6657682 L271.434511,80.2237197 C270.902287,79.819407 270.370062,79.4150943 269.837838,79.1455526 C269.305613,78.8760108 268.773389,78.7412399 268.241164,78.7412399 C267.841996,78.7412399 267.442827,78.7412399 267.176715,78.8760108 C266.910603,79.0107817 266.511435,79.2803235 266.245322,79.5498652 C265.97921,79.819407 265.846154,80.3584906 265.713098,80.8975741 C265.580042,81.4366577 265.446985,82.245283 265.446985,83.1886792 L265.446985,93.5660377 C265.446985,94.509434 265.580042,95.3180593 265.713098,95.8571429 C265.846154,96.3962264 266.112266,96.93531 266.245322,97.2048518 C266.511435,97.6091644 266.777547,97.7439353 267.176715,97.8787062 C267.442827,98.0134771 267.841996,98.0134771 268.241164,98.0134771 C268.773389,98.0134771 269.305613,97.8787062 269.837838,97.6091644 C270.370062,97.4743935 270.902287,97.0700809 271.434511,96.6657682 Z M299.775468,84.2668464 L299.775468,89.5229111 L287.66736,89.5229111 L287.66736,93.5660377 C287.66736,95.1832884 287.933472,96.3962264 288.465696,97.0700809 C288.997921,97.7439353 289.796258,98.148248 290.860707,98.148248 C291.925156,98.148248 292.723493,97.7439353 293.255717,97.0700809 C293.787942,96.3962264 294.054054,95.1832884 294.054054,93.5660377 L294.054054,92.8921833 L299.775468,92.8921833 C299.775468,94.3746631 299.509356,95.722372 299.243243,96.93531 C298.844075,98.148248 298.444906,99.2264151 297.64657,100.03504 C296.981289,100.978437 296.049896,101.652291 294.985447,102.056604 C293.920998,102.595687 292.45738,102.730458 290.860707,102.730458 C289.264033,102.730458 287.800416,102.460916 286.735967,101.921833 C285.671518,101.382749 284.740125,100.708895 283.941788,99.7654987 C283.276507,98.8221024 282.744283,97.7439353 282.345114,96.5309973 C282.079002,95.1832884 281.945946,93.8355795 281.945946,92.3530997 L281.945946,84.1320755 C281.945946,82.6495957 282.079002,81.1671159 282.345114,79.9541779 C282.611227,78.7412399 283.143451,77.5283019 283.941788,76.7196765 C284.607069,75.7762803 285.538462,75.1024259 286.735967,74.5633423 C287.800416,74.0242588 289.264033,73.754717 290.860707,73.754717 C292.45738,73.754717 293.920998,74.0242588 294.985447,74.5633423 C296.049896,75.1024259 296.981289,75.7762803 297.779626,76.7196765 C298.577963,77.6630728 298.977131,78.7412399 299.376299,79.9541779 C299.642412,81.4366577 299.775468,82.7843666 299.775468,84.2668464 Z M287.66736,83.3234501 L287.66736,84.8059299 L294.054054,84.8059299 L294.054054,83.3234501 C294.054054,81.7061995 293.787942,80.4932615 293.255717,79.819407 C292.723493,79.1455526 291.925156,78.7412399 290.860707,78.7412399 C289.796258,78.7412399 288.997921,79.1455526 288.465696,79.819407 C287.933472,80.4932615 287.66736,81.5714286 287.66736,83.3234501 Z M310.419958,80.4932615 L310.419958,102.460916 L304.698545,102.460916 L304.698545,74.4285714 L310.153846,74.4285714 L310.153846,77.2587601 C310.819127,76.7196765 311.351351,76.3153639 311.75052,75.9110512 C312.282744,75.5067385 312.681913,75.1024259 313.214137,74.8328841 C313.746362,74.5633423 314.278586,74.2938005 314.943867,74.1590296 C315.476091,74.0242588 316.274428,73.8894879 317.072765,73.8894879 C318.669439,73.8894879 319.733888,74.4285714 320.665281,75.3719677 C321.463617,76.4501348 321.862786,77.7978437 321.862786,79.6846361 L321.862786,102.326146 L316.141372,102.326146 L316.141372,80.7628032 C316.141372,80.0889488 316.008316,79.5498652 315.609148,79.2803235 C315.209979,79.0107817 314.677755,78.7412399 314.14553,78.7412399 C313.480249,78.7412399 312.948025,78.8760108 312.4158,79.2803235 C311.75052,79.5498652 311.085239,79.9541779 310.419958,80.4932615 Z M329.313929,96.6657682 L329.313929,79.2803235 L326.120582,79.2803235 L326.120582,74.5633423 L329.313929,74.5633423 L329.313929,66.8814016 L335.035343,66.8814016 L335.035343,74.4285714 L338.893971,74.4285714 L338.893971,79.1455526 L335.035343,79.1455526 L335.035343,95.1832884 C335.035343,96.6657682 335.700624,97.4743935 337.031185,97.4743935 L338.893971,97.4743935 L338.893971,102.460916 C338.494802,102.595687 338.095634,102.595687 337.696466,102.730458 C337.297297,102.730458 336.765073,102.865229 335.966736,102.865229 C333.837838,102.865229 332.108108,102.326146 331.043659,101.382749 C329.97921,100.439353 329.313929,98.8221024 329.313929,96.6657682 Z M349.538462,64.8598383 L349.538462,70.115903 L343.817048,70.115903 L343.817048,64.8598383 L349.538462,64.8598383 Z M349.538462,74.4285714 L349.538462,102.326146 L343.817048,102.326146 L343.817048,74.4285714 L349.538462,74.4285714 Z M360.316008,82.6495957 L354.594595,82.6495957 C354.727651,79.819407 355.659044,77.6630728 357.255717,76.180593 C358.852391,74.6981132 361.114345,73.8894879 363.775468,73.8894879 C366.43659,73.8894879 368.432432,74.5633423 369.89605,75.7762803 C371.359667,76.9892183 372.024948,78.8760108 372.024948,81.5714286 L372.024948,99.4959569 C372.024948,99.9002695 372.024948,100.439353 372.158004,100.978437 C372.29106,101.51752 372.29106,102.056604 372.424116,102.460916 L366.968815,102.460916 C366.968815,102.056604 366.835759,101.652291 366.835759,101.382749 C366.702703,100.978437 366.702703,100.708895 366.702703,100.304582 C365.638254,101.247978 364.573805,101.921833 363.642412,102.326146 C362.711019,102.730458 361.513514,103 360.049896,103 C358.054054,103 356.590437,102.460916 355.659044,101.247978 C354.727651,100.03504 354.195426,98.5525606 354.195426,96.8005391 C354.195426,95.3180593 354.461538,93.9703504 354.993763,92.7574124 C355.525988,91.5444744 356.191268,90.4663073 357.255717,89.3881402 C358.320166,88.309973 359.517672,87.5013477 361.114345,86.5579515 C362.711019,85.7493261 364.440748,84.9407008 366.43659,84.1320755 L366.43659,82.5148248 C366.43659,80.0889488 365.505198,78.8760108 363.642412,78.8760108 C362.31185,78.8760108 361.513514,79.2803235 361.114345,79.9541779 C360.715177,80.4932615 360.449064,81.4366577 360.316008,82.6495957 Z M366.43659,95.5876011 L366.43659,88.309973 C365.106029,89.1185984 364.04158,89.7924528 363.243243,90.4663073 C362.444906,91.1401617 361.779626,91.6792453 361.247401,92.2183288 C360.715177,92.7574124 360.449064,93.296496 360.182952,93.9703504 C360.049896,94.509434 359.91684,95.0485175 359.91684,95.722372 C359.91684,96.6657682 360.182952,97.2048518 360.582121,97.6091644 C360.981289,98.0134771 361.64657,98.148248 362.577963,98.148248 C363.376299,98.148248 364.04158,97.8787062 364.706861,97.3396226 C365.372141,96.8005391 365.904366,96.2614555 366.43659,95.5876011 Z M384,64.8598383 L384,102.326146 L378.278586,102.326146 L378.278586,64.8598383 L384,64.8598383 Z M14.7692308,87.6361186 L14.7692308,4.34770889 C14.7692308,3.67385445 14.2370062,3.13477089 13.5717256,3.13477089 L1.33056133,3.13477089 C0.532224532,3 0,3.53908356 0,4.34770889 L0,101.382749 C0,102.056604 0.532224532,102.595687 1.1975052,102.595687 L34.4615385,102.595687 C35.1268191,102.595687 35.6590437,102.056604 35.6590437,101.382749 L35.6590437,88.9838275 C35.6590437,88.309973 35.1268191,87.7708895 34.4615385,87.7708895 L14.7692308,87.7708895 L14.7692308,87.6361186 Z M102.18711,4.34770889 L102.18711,50.7088949 L90.0790021,3.94339623 C89.9459459,3.40431267 89.4137214,3 88.8814969,3 L75.043659,3 C74.3783784,3 73.8461538,3.53908356 73.8461538,4.21293801 L73.8461538,101.247978 C73.8461538,101.921833 74.3783784,102.460916 75.043659,102.460916 L87.2848233,102.460916 C87.950104,102.460916 88.4823285,101.921833 88.4823285,101.247978 L88.4823285,55.0215633 L100.590437,101.652291 C100.723493,102.191375 101.255717,102.595687 101.787942,102.595687 L115.62578,102.595687 C116.29106,102.595687 116.823285,102.056604 116.823285,101.382749 L116.823285,4.34770889 C116.823285,3.67385445 116.29106,3.13477089 115.62578,3.13477089 L103.384615,3.13477089 C102.719335,3 102.18711,3.53908356 102.18711,4.34770889 Z M143.966736,101.382749 L143.966736,4.34770889 C143.966736,3.67385445 143.434511,3.13477089 142.769231,3.13477089 L130.528067,3.13477089 C129.862786,3.13477089 129.330561,3.67385445 129.330561,4.34770889 L129.330561,101.382749 C129.330561,102.056604 129.862786,102.595687 130.528067,102.595687 L142.769231,102.595687 C143.434511,102.595687 143.966736,102.056604 143.966736,101.382749 Z M177.762994,100.978437 L159.933472,52.8652291 L177.762994,4.75202156 C178.029106,3.94339623 177.496881,3.13477089 176.565489,3.13477089 L163.259875,3.13477089 C162.727651,3.13477089 162.328482,3.40431267 162.06237,3.94339623 L145.297297,52.4609164 C145.164241,52.7304582 145.164241,53 145.297297,53.2695418 L162.06237,101.787062 C162.195426,102.326146 162.727651,102.595687 163.259875,102.595687 L176.565489,102.595687 C177.496881,102.595687 178.029106,101.787062 177.762994,100.978437 Z" id="Shape" fill="#FFFFFF"></path>
            <path d="M60.2162162,96.8864516 C60.2162162,100.209032 57.3783784,103 54,103 C50.4864865,103 47.7837838,100.209032 47.7837838,96.8864516 C47.7837838,93.4309677 50.6216216,90.7729032 54,90.7729032 C57.3783784,90.7729032 60.2162162,93.563871 60.2162162,96.8864516 M60.2162162,6.11354839 C60.2162162,2.65806452 57.3783784,0 54,0 C50.4864865,-8.85313328e-16 47.7837838,2.65806452 47.7837838,6.11354839 C47.7837838,9.43612903 50.4864865,12.2270968 54,12.2270968 C57.3783784,12.2270968 60.2162162,9.43612903 60.2162162,6.11354839 M62.1081081,76.0206452 C62.1081081,71.6348387 58.4594595,68.0464516 54,68.0464516 C49.5405405,68.0464516 45.8918919,71.6348387 45.8918919,76.0206452 C45.8918919,80.4064516 49.5405405,83.9948387 54,83.9948387 C58.4594595,83.9948387 62.1081081,80.5393548 62.1081081,76.0206452 M62.1081081,26.9793548 C62.1081081,22.5935484 58.4594595,19.0051613 54,19.0051613 C49.5405405,19.0051613 45.8918919,22.5935484 45.8918919,26.9793548 C45.8918919,31.3651613 49.5405405,34.9535484 54,34.9535484 C58.4594595,34.9535484 62.1081081,31.3651613 62.1081081,26.9793548 M64,51.5664516 C64,46.1174194 59.5405405,41.7316129 54,41.7316129 C48.4594595,41.7316129 44,46.1174194 44,51.5664516 C44,57.0154839 48.4594595,61.4012903 54,61.4012903 C59.5405405,61.4012903 64,56.8825806 64,51.5664516" id="Shape" fill="#FFD71E"></path>
        </g>
    </g>
</svg>